HIERARCHY
ROOT Hips
{
    OFFSET 0.000000 0.000000 0.000000
    CHANNELS 6 Xposition Yposition Zposition Zrotation Xrotation Yrotation
    JOINT Spine
    {
        OFFSET -0.000000 0.068295 0.000000
        CHANNELS 3 Zrotation Xrotation Yrotation
        JOINT Spine1
        {
            OFFSET -0.000000 0.198479 0.000000
            CHANNELS 3 Zrotation Xrotation Yrotation
            JOINT Neck
            {
                OFFSET -0.000000 0.215136 0.000000
                CHANNELS 3 Zrotation Xrotation Yrotation
                JOINT Head
                {
                    OFFSET -0.000000 0.090366 0.016657
                    CHANNELS 3 Zrotation Xrotation Yrotation
                    End Site
                    {
                        OFFSET -0.000000 0.166573 0.000000
                    }
                }
            }
            JOINT LeftShoulder
            {
                OFFSET 0.033522 0.175145 -0.001055
                CHANNELS 3 Zrotation Xrotation Yrotation
                JOINT LeftArm
                {
                    OFFSET 0.121214 0.000000 0.000000
                    CHANNELS 3 Zrotation Xrotation Yrotation
                    JOINT LeftForeArm
                    {
                        OFFSET 0.261115 0.000000 0.000000
                        CHANNELS 3 Zrotation Xrotation Yrotation
                        JOINT LeftHand
                        {
                            OFFSET 0.230096 0.000000 0.000000
                            CHANNELS 3 Zrotation Xrotation Yrotation
                            End Site
                            {
                                OFFSET 0.000000 -0.124930 0.000000
                            }
                        }
                    }
                }
            }
            JOINT RightShoulder
            {
                OFFSET -0.033103 0.175145 -0.001055
                CHANNELS 3 Zrotation Xrotation Yrotation
                JOINT RightArm
                {
                    OFFSET -0.121214 0.000000 0.000000
                    CHANNELS 3 Zrotation Xrotation Yrotation
                    JOINT RightForeArm
                    {
                        OFFSET -0.261115 0.000000 0.000000
                        CHANNELS 3 Zrotation Xrotation Yrotation
                        JOINT RightHand
                        {
                            OFFSET -0.230096 0.000000 0.000000
                            CHANNELS 3 Zrotation Xrotation Yrotation
                            End Site
                            {
                                OFFSET -0.000000 -0.124930 0.000000
                            }
                        }
                    }
                }
            }
        }
    }
    JOINT LeftUpLeg
    {
        OFFSET 0.083287 0.000000 0.000000
        CHANNELS 3 Zrotation Xrotation Yrotation
        JOINT LeftLeg
        {
            OFFSET -0.000000 -0.281128 0.000000
            CHANNELS 3 Zrotation Xrotation Yrotation
            JOINT LeftFoot
            {
                OFFSET -0.000000 -0.491911 0.000000
                CHANNELS 3 Zrotation Xrotation Yrotation
                JOINT LeftToeBase
                {
                    OFFSET -0.000000 -0.054136 0.124930
                    CHANNELS 3 Zrotation Xrotation Yrotation
                    End Site
                    {
                        OFFSET -0.000000 0.000000 0.033315
                    }
                }
            }
        }
    }
    JOINT RightUpLeg
    {
        OFFSET -0.083287 0.000000 0.000000
        CHANNELS 3 Zrotation Xrotation Yrotation
        JOINT RightLeg
        {
            OFFSET -0.000000 -0.281128 0.000000
            CHANNELS 3 Zrotation Xrotation Yrotation
            JOINT RightFoot
            {
                OFFSET -0.000000 -0.491911 0.000000
                CHANNELS 3 Zrotation Xrotation Yrotation
                JOINT RightToeBase
                {
                    OFFSET -0.000000 -0.054136 0.124930
                    CHANNELS 3 Zrotation Xrotation Yrotation
                    End Site
                    {
                        OFFSET -0.000000 0.000000 0.033315
                    }
                }
            }
        }
    }
}
MOTION
Frames:    4
Frame Time:    0.010000
0.280648    0.818709    0.426344    -3.206762    2.666054    -162.391159    1.228734    3.158002    4.982924    -0.990924    11.089044    1.772843    -1.392235    -8.102584    18.111013    -0.804964    -8.664094    18.663519    -4.932302    10.181163    1.140863    -63.840084    42.450745    -15.427263    4.297683    -3.876023    -17.598167    96.539879    -6.975049    3.611026    1.002920    5.946573    4.741203    58.149567    42.493420    18.641224    -1.956555    -2.607984    10.766891    -101.452827    -8.532693    -3.281038    -0.632112    2.214807    7.776955    -1.752010    19.615612    -0.823577    9.508178    -13.913219    49.421890    0.000000    0.000000    0.000000    3.751086    2.688124    -3.714197    0.685766    10.670942    -3.706304    -4.724982    -18.219273    -32.201950    0.000000    0.000000    0.000000    
0.280657    0.818396    0.429299    -3.144954    2.695710    -162.353302    1.224311    2.986737    4.647394    -0.905075    11.279570    1.653528    -1.405013    -8.046073    18.171844    -0.779342    -8.736247    18.723112    -5.043126    10.174625    1.236794    -63.699604    42.249123    -15.477947    4.160334    -3.683704    -17.600208    96.142494    -6.999393    3.416778    1.003519    5.700853    5.044008    58.434441    42.436649    18.309240    -2.050411    -2.677726    10.747545    -101.369820    -8.555944    -3.338386    -0.406845    2.606734    7.711638    -1.771919    19.690567    -0.843021    8.848035    -16.593906    48.992271    0.000000    0.000000    0.000000    3.792763    2.196493    -3.870490    0.557637    11.036265    -3.469786    -4.326966    -18.958746    -31.606392    0.000000    0.000000    0.000000    
0.280565    0.818050    0.432314    -3.090762    2.736837    -162.404907    1.109968    3.085304    4.636343    -0.703248    11.075552    1.628138    -1.396251    -8.096159    18.143394    -0.572221    -8.513511    18.686277    -5.045646    10.309178    1.120103    -63.206089    43.602005    -16.235741    4.580970    -4.234140    -16.639380    95.990585    -7.366397    3.951683    0.941017    5.606272    4.728487    58.571705    42.649799    18.239857    -2.070995    -2.721791    10.790117    -101.310089    -8.511544    -3.370803    -0.216176    3.274589    7.679577    -1.766639    19.782963    -1.016953    10.096313    -16.448790    48.370556    0.000000    0.000000    0.000000    3.768714    1.741780    -3.898302    0.583172    11.289897    -3.515841    -3.489914    -20.217268    -30.469210    0.000000    0.000000    0.000000    
0.280399    0.817726    0.435217    -2.996375    2.799791    -162.395950    1.139525    2.906955    4.346580    -0.633429    11.315344    1.525687    -1.337107    -7.838448    18.098410    -0.829849    -8.903296    18.650232    -5.045704    10.115486    1.118283    -63.735455    42.541122    -15.435614    4.304471    -3.711216    -17.506584    96.055206    -7.050897    3.422968    0.921799    5.637797    4.882840    58.547131    42.412254    18.325844    -2.014435    -2.659337    10.892881    -101.419304    -8.463347    -3.315210    -0.128048    3.956598    7.650693    -1.710883    19.809553    -1.051887    8.912951    -16.749546    48.835865    0.000000    0.000000    0.000000    3.789563    1.385709    -3.860468    0.585544    11.572038    -3.612590    -3.411620    -20.279423    -30.264812    0.000000    0.000000    0.000000    
